<svg width="90" height="90" viewBox="0 0 90 90" fill="none" xmlns="http://www.w3.org/2000/svg">
<g clip-path="url(#clip0_1673_360)">
<path d="M51.9231 6.92308C51.9231 3.09375 48.8293 0 45 0C41.1707 0 38.0769 3.09375 38.0769 6.92308V38.0769H6.92308C3.09375 38.0769 0 41.1707 0 45C0 48.8293 3.09375 51.9231 6.92308 51.9231H38.0769V83.0769C38.0769 86.9063 41.1707 90 45 90C48.8293 90 51.9231 86.9063 51.9231 83.0769V51.9231H83.0769C86.9063 51.9231 90 48.8293 90 45C90 41.1707 86.9063 38.0769 83.0769 38.0769H51.9231V6.92308Z" fill="white"/>
</g>
<defs>
<clipPath id="clip0_1673_360">
<rect width="90" height="90" fill="white"/>
</clipPath>
</defs>
</svg>
