<svg width="50" height="50" viewBox="0 0 50 50" fill="none" xmlns="http://www.w3.org/2000/svg">
<path d="M13.2258 23.4184L13.2264 23.4189C14.2299 24.1757 15.7463 24.7113 17.0308 23.9661L28.1577 17.5103C29.4421 16.7651 29.7387 15.1776 29.5882 13.9258L29.5882 13.925C29.3607 12.0554 30.2527 10.1334 31.9935 9.12345C34.3185 7.7745 37.2751 8.56061 38.603 10.8719C39.5157 12.4607 39.4219 14.3646 38.5147 15.8347C38.282 16.2055 38.2382 16.6929 38.4761 17.1069C38.7139 17.5209 39.1558 17.7265 39.5916 17.7094C41.3122 17.6549 42.9999 18.5252 43.9127 20.114C45.2406 22.4253 44.4397 25.3915 42.1147 26.7404C40.374 27.7504 38.2716 27.5657 36.7742 26.433L36.7736 26.4325C35.7701 25.6757 34.2537 25.14 32.9692 25.8853L21.8423 32.341C20.5579 33.0863 20.2613 34.6738 20.4118 35.9256L20.4118 35.9263C20.6393 37.7959 19.7473 39.718 18.0065 40.7279C15.6815 42.0769 12.7249 41.2908 11.397 38.9794C10.4843 37.3907 10.5781 35.4868 11.4853 34.0166C11.718 33.6459 11.7618 33.1585 11.5239 32.7445C11.286 32.3304 10.8441 32.1248 10.4082 32.142C8.68766 32.1964 7.00007 31.3261 6.08733 29.7374C4.75943 27.4261 5.56028 24.4599 7.88527 23.1109C9.626 22.101 11.7284 22.2856 13.2258 23.4184Z" fill="white" stroke="white"/>
</svg>
