<svg width="44" height="36" viewBox="0 0 44 36" fill="none" xmlns="http://www.w3.org/2000/svg">
<path fill-rule="evenodd" clip-rule="evenodd" d="M3.375 31.5C3.375 32.1188 3.88125 32.625 4.5 32.625H22.5C23.1188 32.625 23.625 32.1188 23.625 31.5V27.7533L21.9592 28.2435C21.5791 28.3521 21.1673 28.248 20.8867 27.9675C20.6062 27.6869 20.5021 27.2752 20.6152 26.8906L22.2171 21.4474C22.4072 20.8095 22.7511 20.2258 23.2217 19.7552L23.625 19.3517V11.25H18C16.7555 11.25 15.75 10.2445 15.75 9V3.375H4.5C3.88125 3.375 3.375 3.88125 3.375 4.5V31.5ZM27 15.9755V10.8633C27 9.66797 26.5289 8.52187 25.6852 7.67812L19.3148 1.31484C18.4711 0.471094 17.332 0 16.1367 0H4.5C2.01797 0 0 2.01797 0 4.5V31.5C0 33.982 2.01797 36 4.5 36H22.5C24.982 36 27 33.982 27 31.5V26.7603L27.4028 26.6417C28.0408 26.4517 28.6245 26.1078 29.0951 25.6373L39.652 15.0858L33.7695 9.2037L27 15.9755ZM6.75 19.6875C6.75 18.7523 7.50235 18 8.4375 18H18.5625C19.4977 18 20.25 18.7523 20.25 19.6875C20.25 20.6227 19.4977 21.375 18.5625 21.375H8.4375C7.50235 21.375 6.75 20.6227 6.75 19.6875ZM6.75 26.4375C6.75 25.5023 7.50235 24.75 8.4375 24.75H18.5625C19.4977 24.75 20.25 25.5023 20.25 26.4375C20.25 27.3727 19.4977 28.125 18.5625 28.125H8.4375C7.50235 28.125 6.75 27.3727 6.75 26.4375ZM34.7921 8.18113L36.9822 5.9912H36.9867C38.118 4.86003 39.9506 4.86003 41.0819 5.9912L42.8647 7.77844C43.996 8.9096 43.996 10.7421 42.8647 11.8733L40.6746 14.0632L34.7921 8.18113Z" fill="#4F82D4"/>
</svg>
