<svg width="79" height="70" viewBox="0 0 79 70" fill="none" xmlns="http://www.w3.org/2000/svg">
<path d="M56.9056 68.445L75.8574 60.7713C75.8579 60.7711 75.8585 60.7709 75.859 60.7706C76.9044 60.3392 77.5947 59.3134 77.5947 58.1704V20.9725C77.5947 18.9817 75.6263 17.6443 73.8227 18.3726L56.9056 68.445ZM56.9056 68.445V27.7387C57.3645 26.816 57.7852 25.8941 58.1678 24.9851L58.1693 24.9813C58.2048 24.895 58.24 24.8058 58.2737 24.7206C58.2809 24.7024 58.288 24.6843 58.2951 24.6665L73.8222 18.3728L56.9056 68.445ZM37.442 42.6427L37.4403 42.6406C35.27 39.8933 31.719 35.1931 28.7131 30.2508C27.21 27.7795 25.849 25.2572 24.8652 22.895C23.878 20.5246 23.2873 18.3547 23.2873 16.5768C23.2873 7.73954 30.3491 0.593262 39.0542 0.593262C47.7593 0.593262 54.8211 7.73954 54.8211 16.5768C54.8211 18.3547 54.2304 20.5246 53.2432 22.895C52.2594 25.2572 50.8984 27.7795 49.3954 30.2508C46.3895 35.1928 42.8387 39.8929 40.6684 42.6402C39.8235 43.7077 38.2707 43.7035 37.442 42.6427ZM18.2871 19.7891C18.6456 21.5699 19.2516 23.3392 19.9403 24.9842L19.9407 24.9851C20.3232 25.8941 20.7439 26.816 21.2029 27.7387V61.8172L4.2862 68.6821C2.4825 69.4109 0.513672 68.0734 0.513672 66.0825V28.8846C0.513672 27.7415 1.20417 26.7157 2.24965 26.2843C2.25012 26.2841 2.25059 26.2839 2.25106 26.2837L18.2871 19.7891ZM44.8417 46.0078L44.842 46.0074C46.5246 43.8731 49.0613 40.5451 51.5677 36.792V68.7001L26.5407 61.4486V36.792C29.0471 40.5451 31.5838 43.8731 33.2664 46.0074L33.2667 46.0078C36.2458 49.7776 41.8626 49.7776 44.8417 46.0078ZM39.0542 21.4725C40.6271 21.4725 42.1341 20.8393 43.2442 19.7144C44.3541 18.5897 44.9765 17.0657 44.9765 15.4779C44.9765 13.8902 44.3541 12.3662 43.2442 11.2415C42.1341 10.1166 40.6271 9.48341 39.0542 9.48341C37.4814 9.48341 35.9743 10.1166 34.8642 11.2415C33.7543 12.3662 33.1319 13.8902 33.1319 15.4779C33.1319 17.0657 33.7543 18.5897 34.8642 19.7144C35.9743 20.8393 37.4814 21.4725 39.0542 21.4725Z" fill="white" stroke="white"/>
</svg>
