<svg width="50" height="50" viewBox="0 0 50 50" fill="none" xmlns="http://www.w3.org/2000/svg">
<path d="M24.9965 14.1071C20.4691 14.1071 16.7472 16.0232 13.8933 18.4895C11.2199 20.8069 9.37288 23.558 8.42852 25.5C9.37288 27.442 11.2199 30.1931 13.8864 32.5105C16.7472 34.9768 20.4691 36.8929 24.9965 36.8929C29.5239 36.8929 33.2458 34.9768 36.0997 32.5105C38.7731 30.1931 40.6202 27.442 41.5645 25.5C40.6202 23.558 38.7731 20.8069 36.1067 18.4895C33.2458 16.0232 29.5239 14.1071 24.9965 14.1071ZM11.6227 16.2174C14.8932 13.3821 19.3859 11 24.9965 11C30.6072 11 35.0998 13.3821 38.3704 16.2174C41.6201 19.0333 43.7935 22.3929 44.8281 24.7038C45.0573 25.2152 45.0573 25.7848 44.8281 26.2962C43.7935 28.6071 41.6201 31.9732 38.3704 34.7826C35.0998 37.6179 30.6072 40 24.9965 40C19.3859 40 14.8932 37.6179 11.6227 34.7826C8.37297 31.9732 6.19955 28.6071 5.17186 26.2962C4.94271 25.7848 4.94271 25.2152 5.17186 24.7038C6.19955 22.3929 8.37297 19.0268 11.6227 16.2174ZM24.9965 30.6786C28.0657 30.6786 30.5516 28.3612 30.5516 25.5C30.5516 22.6388 28.0657 20.3214 24.9965 20.3214C24.9479 20.3214 24.9063 20.3214 24.8577 20.3214C24.9479 20.6516 24.9965 21.0011 24.9965 21.3571C24.9965 23.6422 23.0036 25.5 20.5525 25.5C20.1706 25.5 19.7956 25.4547 19.4415 25.3705C19.4415 25.4158 19.4415 25.4547 19.4415 25.5C19.4415 28.3612 21.9274 30.6786 24.9965 30.6786ZM24.9965 17.2143C27.3538 17.2143 29.6145 18.0872 31.2814 19.6411C32.9482 21.195 33.8846 23.3025 33.8846 25.5C33.8846 27.6975 32.9482 29.805 31.2814 31.3589C29.6145 32.9128 27.3538 33.7857 24.9965 33.7857C22.6393 33.7857 20.3785 32.9128 18.7117 31.3589C17.0448 29.805 16.1084 27.6975 16.1084 25.5C16.1084 23.3025 17.0448 21.195 18.7117 19.6411C20.3785 18.0872 22.6393 17.2143 24.9965 17.2143Z" fill="#4F82D4"/>
</svg>
