<svg width="90" height="90" viewBox="0 0 90 90" fill="none" xmlns="http://www.w3.org/2000/svg">
<path fill-rule="evenodd" clip-rule="evenodd" d="M29.5625 50C36.5017 50 42.4055 54.4523 44.5932 60.6667H82.6875C85.6216 60.6667 88 63.0544 88 66C88 68.9456 85.6216 71.3333 82.6875 71.3333H44.5932C42.4055 77.5477 36.5017 82 29.5625 82C22.6232 82 16.7197 77.5477 14.5319 71.3333H8.3125C5.37851 71.3333 3 68.9456 3 66C3 63.0544 5.37851 60.6667 8.3125 60.6667H14.5319C16.7197 54.4523 22.6232 50 29.5625 50ZM29.5625 71.3333C32.4965 71.3333 34.875 68.9456 34.875 66C34.875 63.0544 32.4965 60.6667 29.5625 60.6667C26.6285 60.6667 24.25 63.0544 24.25 66C24.25 68.9456 26.6285 71.3333 29.5625 71.3333Z" fill="#051022"/>
<path fill-rule="evenodd" clip-rule="evenodd" d="M61.4375 8C54.4983 8 48.5945 12.4523 46.4068 18.6667H8.3125C5.37846 18.6667 3 21.0545 3 24C3 26.9455 5.37846 29.3333 8.3125 29.3333H46.4068C48.5945 35.5477 54.4983 40 61.4375 40C68.3767 40 74.2805 35.5477 76.4682 29.3333H82.6875C85.6216 29.3333 88 26.9455 88 24C88 21.0545 85.6216 18.6667 82.6875 18.6667H76.4682C74.2805 12.4523 68.3767 8 61.4375 8ZM61.4375 29.3333C58.5034 29.3333 56.125 26.9455 56.125 24C56.125 21.0545 58.5034 18.6667 61.4375 18.6667C64.3716 18.6667 66.75 21.0545 66.75 24C66.75 26.9455 64.3716 29.3333 61.4375 29.3333Z" fill="#051022"/>
</svg>
