<svg width="90" height="90" viewBox="0 0 90 90" fill="none" xmlns="http://www.w3.org/2000/svg">
<path fill-rule="evenodd" clip-rule="evenodd" d="M11.032 16.5942C9.62617 15.5789 7.66344 15.8954 6.64812 17.3013C5.6328 18.7071 5.94936 20.6698 7.35519 21.6852L13.568 26.1722C14.9738 27.1875 16.9366 26.8709 17.9519 25.4651C18.9672 24.0593 18.6506 22.0965 17.2448 21.0812L11.032 16.5942ZM4.0995 38.2135C2.36551 38.2358 0.977935 39.6596 1.00027 41.3936C1.0226 43.1276 2.44638 44.5152 4.18037 44.4929L12.9727 44.3796C14.7067 44.3573 16.0943 42.9335 16.0719 41.1995C16.0496 39.4655 14.6258 38.078 12.8918 38.1003L4.0995 38.2135ZM83.3514 17.3013C82.3361 15.8954 80.3734 15.5789 78.9676 16.5942L72.7548 21.0812C71.3489 22.0965 71.0324 24.0593 72.0477 25.4651C73.063 26.8709 75.0257 27.1875 76.4316 26.1722L82.6444 21.6852C84.0502 20.6698 84.3668 18.7071 83.3514 17.3013ZM85.9005 38.2135C87.6345 38.2358 89.0221 39.6596 88.9998 41.3936C88.9774 43.1276 87.5537 44.5152 85.8197 44.4929L77.0273 44.3796C75.2933 44.3573 73.9058 42.9335 73.9281 41.1995C73.9504 39.4655 75.3742 38.078 77.1082 38.1003L85.9005 38.2135ZM14.2276 71.0291C14.2276 67.3874 17.1798 64.4353 20.8215 64.4353H69.1765C72.8182 64.4353 75.7703 67.3874 75.7703 71.0291C75.7703 74.6708 72.8181 77.623 69.1765 77.623H20.8215C17.1798 77.623 14.2276 74.6708 14.2276 71.0291ZM68.8633 60.0384H33.3922L36.5075 36.1548C36.6869 34.7792 35.7172 33.5185 34.3415 33.3391C32.9659 33.1596 31.7052 34.1294 31.5258 35.505L28.4076 59.4107C28.3798 59.6239 28.3796 59.8343 28.4042 60.0384H21.1363C21.8689 53.2352 23.5226 38.31 24.2762 33.0349C25.1733 26.7551 30.2421 25.3944 32.754 24.8711H56.3035C62.5834 24.8711 65.2 30.3137 65.7233 33.0349L68.8633 60.0384Z" fill="#888888"/>
</svg>
