<svg width="100" height="100" viewBox="0 0 100 100" fill="none" xmlns="http://www.w3.org/2000/svg">
<path d="M55.0988 25.863C54.3422 34.0082 49.1535 40.154 44.1539 39.6543C39.1543 39.1547 36.0628 32.1815 36.8194 24.0364C37.5761 15.8912 43.1129 9.7802 48.1126 10.2798C53.1122 10.7794 55.8555 17.7178 55.0988 25.863Z" fill="#FFC800" fill-opacity="0.5"/>
<path d="M55.0988 25.863C54.3422 34.0082 49.1535 40.154 44.1539 39.6543C39.1543 39.1547 36.0628 32.1815 36.8194 24.0364C37.5761 15.8912 43.1129 9.7802 48.1126 10.2798C53.1122 10.7794 55.8555 17.7178 55.0988 25.863Z" fill="#FFC800" fill-opacity="0.5"/>
<path d="M79.8862 67.324C74.7501 73.6315 68.3772 73.622 64.4905 70.3928C60.0735 64.9898 64.3038 56.9029 67.6075 53.87C73.178 48.7562 78.3898 47.5049 82.3396 50.3805C86.2895 53.256 85.0224 61.0165 79.8862 67.324Z" fill="#FFC800" fill-opacity="0.5"/>
<path d="M79.8862 67.324C74.7501 73.6315 68.3772 73.622 64.4905 70.3928C60.0735 64.9898 64.3038 56.9029 67.6075 53.87C73.178 48.7562 78.3898 47.5049 82.3396 50.3805C86.2895 53.256 85.0224 61.0165 79.8862 67.324Z" fill="#FFC800" fill-opacity="0.5"/>
<path d="M75.8977 38.3971C71.2249 45.1954 64.413 48.2673 59.9038 46.0134C55.3945 43.7595 55.7458 36.9826 59.3151 29.6519C62.8845 22.3212 70.8814 18.5844 75.3907 20.8383C79.9 23.0922 79.9393 30.8268 75.8977 38.3971Z" fill="#FFC800" fill-opacity="0.5"/>
<path d="M75.8977 38.3971C71.2249 45.1954 64.413 48.2673 59.9038 46.0134C55.3945 43.7595 55.7458 36.9826 59.3151 29.6519C62.8845 22.3212 70.8814 18.5844 75.3907 20.8383C79.9 23.0922 79.9393 30.8268 75.8977 38.3971Z" fill="#FFC800" fill-opacity="0.5"/>
<path d="M33.0772 37.8389C33.9573 45.9803 30.0509 51.7543 25.059 52.2771C20.0671 52.7999 16.6644 48.0714 15.0537 40.8223C14.1736 32.6809 17.7913 25.9276 22.7832 25.4047C27.7751 24.8819 32.1971 29.6975 33.0772 37.8389Z" fill="#FFC800" fill-opacity="0.5"/>
<path d="M33.0772 37.8389C33.9573 45.9803 30.0509 51.7543 25.059 52.2771C20.0671 52.7999 16.6644 48.0714 15.0537 40.8223C14.1736 32.6809 17.7913 25.9276 22.7832 25.4047C27.7751 24.8819 32.1971 29.6975 33.0772 37.8389Z" fill="#FFC800" fill-opacity="0.5"/>
<path d="M24.7552 59.336C34.2643 50.7882 43.9207 49.733 47.5602 50.2739C61.5204 56.985 61.6139 74.8919 61.7558 80.9309C61.8977 86.97 53.0904 94.7729 45.2939 86.0196C37.4974 77.2664 28.1895 82.8928 20.9483 79.5112C13.7071 76.1295 12.8689 70.0209 24.7552 59.336Z" fill="#FFC800" fill-opacity="0.5"/>
</svg>
